<svg xmlns="http://www.w3.org/2000/svg" width="70.101" height="57.463" viewBox="0 0 70.101 57.463">
  <g id="bee" transform="translate(-106.949 -122.799)">
    <g id="body" transform="translate(131 127.807)" fill="#fff">
      <path d="M 10.52823448181152 51.02110290527344 C 9.478035926818848 49.85831832885742 7.363895893096924 47.36827087402344 5.272295475006104 44.02359771728516 C 3.560565233230591 41.286376953125 2.198275327682495 38.51998901367188 1.223235368728638 35.80126953125 C 0.01433531288057566 32.43043899536133 -0.598634660243988 29.12492942810059 -0.598634660243988 25.97655868530273 C -0.598634660243988 19.57534790039063 4.528035163879395 8.659049034118652 4.57981538772583 8.549528121948242 L 4.703975200653076 8.286948204040527 L 4.668145179748535 7.998708724975586 C 4.663625240325928 7.961138725280762 4.217405319213867 4.035568714141846 6.273125171661377 1.71712863445282 C 7.296645164489746 0.5628185868263245 8.818155288696289 -0.02246140688657761 10.79540538787842 -0.02246140688657761 C 13.07568550109863 -0.02246140688657761 14.81532573699951 0.6309986114501953 15.96599578857422 1.91977858543396 C 18.04558563232422 4.248978614807129 17.65004539489746 7.969698429107666 17.64580535888672 8.00700855255127 L 17.61491584777832 8.278938293457031 L 17.72659492492676 8.530978202819824 C 17.77494621276855 8.638908386230469 22.56152534484863 19.39997863769531 22.56152534484863 25.97655868530273 C 22.56152534484863 29.12466812133789 21.89767456054688 32.43124008178711 20.58842468261719 35.80440902709961 C 19.53212547302246 38.52585983276367 18.05649566650391 41.29514694213867 16.2025146484375 44.03537750244141 C 13.93054103851318 47.39341354370117 11.64738082885742 49.8764533996582 10.52823448181152 51.02110290527344 Z" stroke="none"/>
      <path d="M 10.79540538787842 0.9775390625 C 9.096335411071777 0.9775390625 7.86351490020752 1.434577941894531 7.026505470275879 2.374778747558594 C 5.57293701171875 4.007534027099609 5.547586441040039 6.8963623046875 5.660892486572266 7.878276824951172 L 5.735694885253906 8.444377899169922 L 5.483844757080078 8.976997375488281 C 5.471065521240234 9.004039764404297 4.190275192260742 11.72208786010742 2.91816520690918 15.22039031982422 C 1.271656036376953 19.74825859069824 0.4013652801513672 23.46767807006836 0.4013652801513672 25.97655868530273 C 0.4013652801513672 29.00135803222656 0.9914150238037109 32.18445587158203 2.155124664306641 35.43743896484375 C 3.101785659790039 38.08366775512695 4.427225112915039 40.78032684326172 6.09461498260498 43.45249938964844 C 7.754892349243164 46.11326217651367 9.431830406188965 48.2249870300293 10.55667591094971 49.53865432739258 C 13.8162784576416 46.02053070068359 21.56152534484863 36.54736328125 21.56152534484863 25.97655868530273 C 21.56152534484863 19.61666870117188 16.86140441894531 9.045757293701172 16.81408500671387 8.940067291259766 L 16.58821487426758 8.436119079589844 L 16.65293502807617 7.887680053710938 C 16.65678596496582 7.855098724365234 16.98808479309082 4.574718475341797 15.22627544403076 2.592788696289063 C 14.26010513305664 1.505889892578125 12.81075572967529 0.9775390625 10.79540538787842 0.9775390625 M 10.79540538787842 -1.0224609375 C 19.71828460693359 -1.0224609375 18.63915634155273 8.1220703125 18.63915634155273 8.1220703125 C 18.63915634155273 8.1220703125 23.56152534484863 19.10456848144531 23.56152534484863 25.97655868530273 C 23.56152534484863 40.32302856445313 10.49999523162842 52.455078125 10.49999523162842 52.455078125 C 10.49999523162842 52.455078125 -1.598634719848633 40.32302856445313 -1.598634719848633 25.97655868530273 C -1.598634719848633 19.27679824829102 3.675785064697266 8.1220703125 3.675785064697266 8.1220703125 C 3.675785064697266 8.1220703125 2.539035797119141 -1.0224609375 10.79540538787842 -1.0224609375 Z" stroke="none" fill="#556080"/>
    </g>
    <g id="lines">
      <line id="Line_33" data-name="Line 33" x1="9" transform="translate(137.5 153.5)" fill="none" stroke="#556080" stroke-linecap="round" stroke-width="2"/>
      <line id="Line_34" data-name="Line 34" x1="19" transform="translate(132.5 162.5)" fill="none" stroke="#556080" stroke-linecap="round" stroke-width="2"/>
      <line id="Line_35" data-name="Line 35" x1="11" transform="translate(136.5 170.5)" fill="none" stroke="#556080" stroke-linecap="round" stroke-width="2"/>
    </g>
    <g id="head">
      <path id="Path_342" data-name="Path 342" d="M5170.157,13919.99s.01-4.575,7.88-3.394" transform="translate(-5028 -13793)" fill="none" stroke="#556080" stroke-linecap="round" stroke-width="1.2"/>
      <path id="Path_343" data-name="Path 343" d="M5178.037,13919.99s-.01-4.575-7.88-3.394" transform="translate(-5036 -13793)" fill="none" stroke="#556080" stroke-linecap="round" stroke-width="1.2"/>
    </g>
    <g id="bal">
      <g id="Path_340" data-name="Path 340" transform="matrix(0.695, -0.719, 0.719, 0.695, 135.653, 143.45)" fill="#fff">
        <path d="M 9.491514205932617 35.83308410644531 C 8.456503868103027 35.83308410644531 7.120643615722656 35.37964248657227 5.826473712921143 34.58903503417969 C 4.300153732299805 33.65661239624023 2.923223733901978 32.32966232299805 1.844523787498474 30.75166320800781 C 0.4150138199329376 28.66046333312988 -0.4365161657333374 26.23991394042969 -0.6864161491394043 23.5572338104248 C -0.9844161868095398 20.35821342468262 -0.4068361818790436 16.8660831451416 1.030273795127869 13.17786407470703 L 1.034383773803711 13.16730403900146 L 1.03826379776001 13.15664386749268 C 1.041023850440979 13.14906406402588 1.043803811073303 13.1414737701416 1.120863795280457 12.93365383148193 C 3.2401442527771 7.133937358856201 7.910305023193359 2.420613288879395 9.711849212646484 0.7522574067115784 C 11.88700675964355 3.298071384429932 18.80947113037109 11.81980323791504 19.7709846496582 18.21455383300781 L 19.77940368652344 18.27055358886719 L 19.79409408569336 18.32525444030762 C 21.46427345275879 24.5438346862793 19.6367130279541 28.68951416015625 17.80946350097656 31.07227325439453 C 16.67584419250488 32.55053329467773 15.20936393737793 33.79083251953125 13.56856346130371 34.65909194946289 C 12.15863418579102 35.40518569946289 10.67260360717773 35.83308410644531 9.491514205932617 35.83308410644531 Z" stroke="none"/>
        <path d="M 9.632119178771973 2.208766937255859 C 7.576322555541992 4.228683471679688 3.860337257385254 8.350322723388672 2.061744689941406 13.27243423461914 L 2.060123443603516 13.27686309814453 L 2.058483123779297 13.28129386901855 C 1.993984222412109 13.45525360107422 1.981782913208008 13.48820304870605 1.978303909301758 13.49770355224609 L 1.970413208007813 13.51941299438477 L 1.962034225463867 13.54092407226563 C 0.5818939208984375 17.08293342590332 0.02582359313964844 20.42170333862305 0.3092746734619141 23.46447372436523 C 0.5432338714599609 25.97608375549316 1.3375244140625 28.23797416687012 2.670073509216309 30.18733406066895 C 4.983643531799316 33.57181549072266 8.08199405670166 34.83308410644531 9.491514205932617 34.83308410644531 C 10.51482391357422 34.83308410644531 11.83037376403809 34.44750213623047 13.10085391998291 33.77521514892578 C 14.61541366577148 32.9737548828125 15.96922397613525 31.82867431640625 17.01593399047852 30.46374320983887 C 18.70622444152832 28.25956344604492 20.39273452758789 24.40943336486816 18.82830429077148 18.58464431762695 L 18.79892349243164 18.47524452209473 L 18.78208351135254 18.36323356628418 C 18.34005355834961 15.42335319519043 16.41738319396973 11.46047401428223 13.221923828125 6.903003692626953 C 11.87659931182861 4.984254837036133 10.56123542785645 3.329330444335938 9.632119178771973 2.208766937255859 M 9.801444053649902 -0.666656494140625 C 9.801444053649902 -0.666656494140625 19.56340408325195 10.10849380493164 20.75985336303711 18.06586456298828 C 24.1099739074707 30.53926467895508 14.46207427978516 36.83308410644531 9.491514205932617 36.83308410644531 C 4.520954132080078 36.83308410644531 -6.029886245727539 28.54280471801758 0.09850311279296875 12.81480407714844 C 0.1013336181640625 12.80701446533203 0.1041736602783203 12.79923439025879 0.1832332611083984 12.58600425720215 C 2.947793960571289 5.020374298095703 9.801444053649902 -0.666656494140625 9.801444053649902 -0.666656494140625 Z" stroke="none" fill="#556080"/>
      </g>
      <g id="Path_341" data-name="Path 341" transform="matrix(-0.695, -0.719, 0.719, -0.695, 123.075, 170.305)" fill="#fff">
        <path d="M 11.47416973114014 36.08159637451172 C 10.79616928100586 35.45479965209961 9.713253974914551 34.39904403686523 8.520281791687012 33.02459716796875 C 6.706202030181885 30.93456840515137 4.25599193572998 27.65566825866699 2.885122060775757 23.90401840209961 C 2.806061983108521 23.69075775146484 2.803272008895874 23.68313789367676 2.80049204826355 23.67551803588867 L 2.796802043914795 23.66540908813477 L 2.792891979217529 23.65536880493164 C 1.355802059173584 19.96715927124023 0.7782420516014099 16.47504806518555 1.076251983642578 13.27602863311768 C 1.326161980628967 10.59334850311279 2.177701950073242 8.172778129577637 3.607212066650391 6.081568717956543 C 4.685922145843506 4.503548622131348 6.062871932983398 3.176588535308838 7.589201927185059 2.244138479232788 C 8.883381843566895 1.453518509864807 10.21925163269043 1.000068545341492 11.25428199768066 1.000058531761169 C 12.43536186218262 1.000058531761169 13.9213924407959 1.427948474884033 15.33132171630859 2.174028396606445 C 16.97211265563965 3.042278528213501 18.4385929107666 4.282568454742432 19.57220268249512 5.760828495025635 C 21.39944267272949 8.14357852935791 23.22699165344238 12.28925895690918 21.5567626953125 18.50786781311035 L 21.54207229614258 18.56255912780762 L 21.53365135192871 18.61856842041016 C 20.57118225097656 25.01954650878906 13.64864063262939 33.53779983520508 11.47416973114014 36.08159637451172 Z" stroke="none"/>
        <path d="M 11.39677619934082 34.62261962890625 C 12.31804943084717 33.51155853271484 13.6195240020752 31.87407875061035 14.9578218460083 29.96822929382324 C 18.16947174072266 25.39456939697266 20.10140228271484 21.41850852966309 20.54476165771484 18.46987915039063 L 20.56160163879395 18.35786819458008 L 20.59099197387695 18.24846839904785 C 22.15545272827148 12.42365837097168 20.46895217895508 8.573518753051758 18.77867126464844 6.369348526000977 C 17.73196220397949 5.004428386688232 16.3781623840332 3.859358549118042 14.86361217498779 3.057908535003662 C 13.59313201904297 2.385628461837769 12.2775821685791 2.00005841255188 11.25428199768066 2.00005841255188 C 9.844752311706543 2.000068426132202 6.746362209320068 3.2613685131073 4.432762145996094 6.645898342132568 C 3.100212097167969 8.595268249511719 2.305912017822266 10.85717868804932 2.071942090988159 13.36878871917725 C 1.788482069969177 16.41155815124512 2.344542026519775 19.75031852722168 3.724652051925659 23.29231834411621 L 3.733122110366821 23.31423759460449 L 3.740021944046021 23.33305931091309 C 3.743422031402588 23.34231758117676 3.753802061080933 23.37036895751953 3.82112193107605 23.55196762084961 L 3.822762012481689 23.5563793182373 L 3.824382066726685 23.5608081817627 C 5.615807056427002 28.46338272094727 9.338486671447754 32.59614562988281 11.39677619934082 34.62261962890625 M 11.5640115737915 37.49985885620117 C 11.5640115737915 37.49985885620117 4.710381984710693 31.81285858154297 1.945862054824829 24.24722862243652 C 1.866801977157593 24.03398895263672 1.863962054252625 24.02620887756348 1.861122012138367 24.01842880249023 C -4.267198085784912 8.290438652038574 6.28370189666748 8.850158337736502e-05 11.2542724609375 5.850158777320758e-05 C 16.2248420715332 3.850158827845007e-05 25.87272262573242 6.293818473815918 22.52253150939941 18.76725769042969 C 21.32604217529297 26.72463798522949 11.5640115737915 37.49985885620117 11.5640115737915 37.49985885620117 Z" stroke="none" fill="#556080"/>
      </g>
    </g>
  </g>
</svg>
