<svg xmlns="http://www.w3.org/2000/svg" width="73.294" height="75.163" viewBox="0 0 73.294 75.163">
  <g id="blew" transform="translate(-223.566 -106.837)">
    <g id="Path_333" data-name="Path 333" transform="translate(-5028 -13793)" fill="none" stroke-linecap="round" stroke-linejoin="round">
      <path d="M5253.566,13937.394c4.395-1.9,36.212-7.03,69.294.43-1.331,20.542-14.746,29.009-14.746,29.009h-39.672S5254.286,13958.237,5253.566,13937.394Z" stroke="none"/>
      <path d="M 5285.990234375 13933.90234375 C 5268.986328125 13933.90234375 5256.23193359375 13936.244140625 5253.56640625 13937.3935546875 C 5254.28564453125 13958.2373046875 5268.44189453125 13966.83203125 5268.44189453125 13966.83203125 L 5308.1142578125 13966.83203125 C 5308.1142578125 13966.83203125 5321.52978515625 13958.365234375 5322.8603515625 13937.8232421875 C 5309.8427734375 13934.8876953125 5297.0224609375 13933.90234375 5285.990234375 13933.90234375 M 5285.990234375 13931.90234375 C 5299.06640625 13931.90234375 5311.619140625 13933.23828125 5323.30029296875 13935.8720703125 C 5324.259765625 13936.0888671875 5324.919921875 13936.970703125 5324.85595703125 13937.9521484375 C 5324.5390625 13942.8447265625 5323.5302734375 13947.4873046875 5321.85693359375 13951.7529296875 C 5320.5126953125 13955.1787109375 5318.73974609375 13958.3681640625 5316.58740234375 13961.232421875 C 5312.888671875 13966.154296875 5309.33154296875 13968.4287109375 5309.181640625 13968.5234375 C 5308.8623046875 13968.724609375 5308.4921875 13968.83203125 5308.1142578125 13968.83203125 L 5268.44189453125 13968.83203125 C 5268.07568359375 13968.83203125 5267.716796875 13968.7314453125 5267.40380859375 13968.5419921875 C 5267.24609375 13968.4462890625 5263.498046875 13966.1396484375 5259.68408203125 13961.142578125 C 5257.4609375 13958.23046875 5255.658203125 13954.986328125 5254.326171875 13951.5009765625 C 5252.66748046875 13947.1611328125 5251.7392578125 13942.4384765625 5251.5673828125 13937.462890625 C 5251.5390625 13936.6396484375 5252.01806640625 13935.8828125 5252.7744140625 13935.556640625 C 5254.5205078125 13934.8037109375 5258.8779296875 13933.9130859375 5264.14501953125 13933.2333984375 C 5268.84814453125 13932.6259765625 5276.45556640625 13931.90234375 5285.990234375 13931.90234375 Z" stroke="none" fill="#556080"/>
    </g>
    <path id="Path_334" data-name="Path 334" d="M5284.543,13901.162s-1.269,2.771,3.318,5.76" transform="translate(-5028 -13793)" fill="none" stroke="#556080" stroke-linecap="round" stroke-width="2"/>
    <path id="Path_336" data-name="Path 336" d="M5284.543,13901.162s-1.269,2.771,3.318,5.76" transform="translate(13596.68 6679.688) rotate(137)" fill="none" stroke="#556080" stroke-linecap="round" stroke-width="2"/>
    <path id="Path_335" data-name="Path 335" d="M5284.564,13901.163s-1.437,5.133,3.759,10.672" transform="matrix(-0.208, -0.978, 0.978, -0.208, -12239.746, 8181.936)" fill="none" stroke="#556080" stroke-linecap="round" stroke-width="2"/>
    <path id="Path_337" data-name="Path 337" d="M5313.665,13930.489s8.75-16.264,8.933-16.971.7-3.183-1.27-4.51a3.925,3.925,0,0,0-4.67.441c-.591.557-17.488,19.61-17.488,19.61" transform="translate(-5028 -13793)" fill="none" stroke="#556080" stroke-linecap="round" stroke-linejoin="round" stroke-width="2"/>
    <g id="Rectangle_182" data-name="Rectangle 182" transform="translate(241 177)" fill="none" stroke="#556080" stroke-linecap="round" stroke-linejoin="round" stroke-width="2">
      <rect width="39" height="3" stroke="none"/>
      <rect x="-1" y="-1" width="41" height="5" fill="none"/>
    </g>
    <g id="Ellipse_45" data-name="Ellipse 45" transform="translate(276 153)" fill="#556080" stroke="#556080" stroke-width="1">
      <circle cx="2" cy="2" r="2" stroke="none"/>
      <circle cx="2" cy="2" r="1.5" fill="none"/>
    </g>
    <g id="Ellipse_46" data-name="Ellipse 46" transform="translate(283 157)" fill="#556080" stroke="#556080" stroke-width="1">
      <circle cx="2" cy="2" r="2" stroke="none"/>
      <circle cx="2" cy="2" r="1.5" fill="none"/>
    </g>
    <g id="Ellipse_47" data-name="Ellipse 47" transform="translate(277 164)" fill="#556080" stroke="#556080" stroke-width="1">
      <circle cx="2" cy="2" r="2" stroke="none"/>
      <circle cx="2" cy="2" r="1.5" fill="none"/>
    </g>
    <g id="Ellipse_48" data-name="Ellipse 48" transform="translate(269 158)" fill="#556080" stroke="#556080" stroke-width="1">
      <circle cx="2" cy="2" r="2" stroke="none"/>
      <circle cx="2" cy="2" r="1.5" fill="none"/>
    </g>
    <g id="Ellipse_49" data-name="Ellipse 49" transform="translate(266 167)" fill="#556080" stroke="#556080" stroke-width="1">
      <circle cx="2" cy="2" r="2" stroke="none"/>
      <circle cx="2" cy="2" r="1.5" fill="none"/>
    </g>
    <path id="Path_338" data-name="Path 338" d="M5270.989,13915.814s7.54-1.746,10.552,4.391,5.218,6.729,5.218,6.729-22.191,4.157-18.331-9.054c5.487,3.615,8.543,5.19,8.543,5.19s-9.46-6.035-11.062-8.18" transform="translate(-5028 -13793)" fill="none" stroke="#556080" stroke-linecap="round" stroke-linejoin="round" stroke-width="2"/>
  </g>
</svg>
