<svg xmlns="http://www.w3.org/2000/svg" xmlns:xlink="http://www.w3.org/1999/xlink" width="23" height="22.014" viewBox="0 0 23 22.014"><defs><linearGradient id="a" x2="0.864" y2="1" gradientUnits="objectBoundingBox"><stop offset="0" stop-color="#c7a84f"/><stop offset="0.571" stop-color="#f4eb97"/><stop offset="1" stop-color="#c7a84f"/></linearGradient></defs><path d="M30.766.753,27.958,6.445l-6.281.916a1.376,1.376,0,0,0-.761,2.347l4.544,4.428-1.075,6.255a1.375,1.375,0,0,0,1.995,1.449L32,18.887l5.619,2.953a1.376,1.376,0,0,0,1.995-1.449l-1.075-6.255,4.544-4.428a1.376,1.376,0,0,0-.761-2.347l-6.281-.916L33.233.753A1.377,1.377,0,0,0,30.766.753Z" transform="translate(-20.5 0.013)" fill="url(#a)"/></svg>