<svg xmlns="http://www.w3.org/2000/svg" width="24.011" height="29.612" viewBox="0 0 24.011 29.612">
  <path id="Path_11" data-name="Path 11" d="M21.639,19.053,16.414,17.54a1.421,1.421,0,0,1-1.021-1.358V14.9a.462.462,0,0,0-.027-.148,5.04,5.04,0,0,0,1.716-3.789V8.7h3.737V7.409H17.082V5.152a5.052,5.052,0,1,0-10.1,0V7.409H3.17V8.7h3.81v2.257a5.04,5.04,0,0,0,1.676,3.754.462.462,0,0,0-.038.185v1.284A1.421,1.421,0,0,1,7.6,17.542l-5.23,1.511A3.3,3.3,0,0,0,0,22.208V28.47a.462.462,0,0,0,.924,0V22.208a2.372,2.372,0,0,1,1.7-2.269L4.488,19.4v9.615a.693.693,0,0,0,1.386,0V19.3a.689.689,0,0,0-.059-.277l1.774-.514v2.125a2.2,2.2,0,0,0,2.233,2.163h4.343A2.2,2.2,0,0,0,16.4,20.631V18.5l1.81.524a.692.692,0,0,0-.022.171v9.827a.693.693,0,0,0,1.386,0v-9.6l1.808.523a2.372,2.372,0,0,1,1.7,2.268v6.261a.462.462,0,1,0,.924,0V22.208A3.3,3.3,0,0,0,21.639,19.053ZM7.9,5.152a4.128,4.128,0,1,1,8.255,0V7.409H7.9Zm0,5.81V8.7h8.255v2.257a4.128,4.128,0,1,1-8.255,0Zm6.262,10.9H9.823a1.276,1.276,0,0,1-1.309-1.239V18.115a2.351,2.351,0,0,0,1.028-1.934v-.832a5.036,5.036,0,0,0,4.927.03v.8a2.351,2.351,0,0,0,1.006,1.92v2.527a1.277,1.277,0,0,1-1.308,1.245Z" transform="translate(0 -0.1)" fill="#fff"/>
</svg>
