<svg xmlns="http://www.w3.org/2000/svg" width="25.404" height="35.49" viewBox="0 0 25.404 35.49">
  <path id="Path_7" data-name="Path 7" d="M22.9,18.2l-5.528-1.6a1.476,1.476,0,0,1-.286-.118.483.483,0,0,0-.232-.153,1.5,1.5,0,0,1-.562-1.167V13.62a5.333,5.333,0,0,0,1.788-3.985V5.445a5.345,5.345,0,1,0-10.69,0v4.19a5.332,5.332,0,0,0,1.734,3.936v1.587A1.5,1.5,0,0,1,8.039,16.6l-5.53,1.6A3.492,3.492,0,0,0,0,21.536v6.625a.489.489,0,1,0,.978,0V21.536a2.51,2.51,0,0,1,1.8-2.4l2.053-.593a.481.481,0,0,0,.038.046L7.5,21.217a2,2,0,0,0,2.583.216l.923-.657a1.76,1.76,0,0,0,.652,1.047L9.593,31.789a.763.763,0,0,0,.184.654l2.068,2.747.045.052a1.188,1.188,0,0,0,1.679,0l.024-.024,2.092-2.779a.767.767,0,0,0,.179-.66L13.8,21.822a1.76,1.76,0,0,0,.651-1.046l.923.657a2,2,0,0,0,2.583-.216l2.66-2.66,2,.58a2.51,2.51,0,0,1,1.8,2.4v6.625a.489.489,0,1,0,.978,0V21.536A3.492,3.492,0,0,0,22.9,18.2ZM14.525,1.478c-.014-.012-.029-.023-.044-.034l.054.024ZM8.365,9.637V7.049q.27.025.541.025a5.711,5.711,0,0,0,4.032-1.662L14.4,3.945a2.222,2.222,0,0,1,1.153.676,3.456,3.456,0,0,0,1.541.894v4.12a4.367,4.367,0,1,1-8.735,0Zm4.368,5.345a5.311,5.311,0,0,0,2.579-.666v.844a2.475,2.475,0,0,0,.6,1.6L13.15,18.724a1.7,1.7,0,0,0-.841,0l-2.79-1.986a2.474,2.474,0,0,0,.577-1.58v-.88a5.31,5.31,0,0,0,2.634.7ZM9.514,20.636a1.027,1.027,0,0,1-1.326-.111L5.9,18.234l2.414-.7a2.444,2.444,0,0,0,.414-.163L11.4,19.278c-.011.013-.022.023-.032.036ZM14.886,31.88l-2.027,2.692a.209.209,0,0,1-.259,0L10.573,31.88l2.006-9.693c.05,0,.1.008.151.008a.972.972,0,0,0,.151-.008Zm2.385-11.355a1.027,1.027,0,0,1-1.325.11l-1.858-1.322c-.01-.013-.022-.023-.032-.036l2.656-1.89a2.444,2.444,0,0,0,.382.147l2.461.712Z" transform="translate(0 -0.1)" fill="#556080"/>
</svg>
